<svg xmlns="http://www.w3.org/2000/svg" xmlns:xlink="http://www.w3.org/1999/xlink" width="500" zoomAndPan="magnify" viewBox="0 0 375 374.999991" height="500" preserveAspectRatio="xMidYMid meet" version="1.0"><path fill="#006eff" d="M 46.878906 -0.015625 L 328.136719 -0.015625 C 353.921875 -0.015625 375.015625 21.078125 375.015625 46.863281 L 375.015625 328.121094 C 375.015625 353.90625 353.921875 375 328.136719 375 L 46.878906 375 C 21.09375 375 0 353.90625 0 328.121094 L 0 46.863281 C 0 21.078125 21.09375 -0.015625 46.878906 -0.015625 " fill-opacity="1" fill-rule="evenodd"/><path fill="#ffffff" d="M 187.507812 58.542969 L 46.878906 128.707031 L 46.878906 164.019531 L 70.308594 164.019531 L 70.308594 140.574219 L 304.695312 140.574219 L 304.695312 164.019531 L 328.136719 164.019531 L 328.136719 128.707031 Z M 187.507812 237.917969 L 328.136719 167.742188 L 328.136719 316.441406 L 46.878906 316.441406 L 46.878906 167.742188 L 187.507812 237.917969 " fill-opacity="1" fill-rule="evenodd"/></svg>